# File produced by Open Asset Import Library (http://www.assimp.sf.net)
# (assimp v3.1.31193554)

mtllib Crate.mtl

# vertex positions
v 83.333336 -83.333336 -104.099998
v 104.099998 -83.333336 -104.099998
v 104.099998 -104.099998 -104.099998
v -104.099998 -83.333336 -83.333336
v -104.099998 -83.333336 -104.099998
v -104.099998 -104.099998 -104.099998
v -83.333336 -83.333336 104.099998
v -104.099998 -83.333336 104.099998
v -104.099998 -104.099998 104.099998
v 104.099998 -83.333336 83.333336
v 104.099998 -83.333336 104.099998
v 104.099998 -104.099998 104.099998
v 83.333336 104.099998 -83.333336
v 104.099998 104.099998 -83.333336
v 104.099998 104.099998 -104.099998
v 83.333336 -104.099998 83.333336
v 104.099998 -104.099998 83.333336
v -83.333336 83.333336 104.099998
v -104.099998 83.333336 104.099998
v -104.099998 0.000000 104.099998
v -104.099998 83.333336 -83.333336
v -104.099998 83.333336 -104.099998
v -104.099998 0.000000 -104.099998
v 83.333336 83.333336 -104.099998
v 104.099998 83.333336 -104.099998
v 104.099998 0.000000 -104.099998
v 104.099998 83.333336 83.333336
v 104.099998 83.333336 104.099998
v 104.099998 0.000000 104.099998
v 83.333336 -83.333336 100.000000
v 83.333336 0.000000 100.000000
v 0.000000 0.000000 100.000000
v 83.333336 83.333336 104.099998
v 83.333336 104.099998 104.099998
v 0.000000 104.099998 104.099998
v -83.333336 104.099998 83.333336
v -83.333336 104.099998 104.099998
v -83.333336 83.333336 -104.099998
v -83.333336 104.099998 -104.099998
v 0.000000 104.099998 -104.099998
v -83.333336 -83.333336 -100.000000
v -83.333336 0.000000 -100.000000
v 0.000000 0.000000 -100.000000
v -83.333336 -104.099998 -83.333336
v -83.333336 -104.099998 -104.099998
v 0.000000 -104.099998 -104.099998
v 0.000000 -83.333336 100.000000
v -83.333336 0.000000 100.000000
v 0.000000 83.333336 104.099998
v -104.099998 104.099998 83.333336
v -104.099998 104.099998 104.099998
v -104.099998 104.099998 -104.099998
v -83.333336 0.000000 -104.099998
v -104.099998 -104.099998 -83.333336
v 83.333336 0.000000 104.099998
v 104.099998 104.099998 104.099998
v 0.000000 104.099998 83.333336
v 0.000000 83.333336 -104.099998
v 83.333336 104.099998 -104.099998
v 0.000000 -83.333336 -100.000000
v 83.333336 0.000000 -100.000000
v 0.000000 -104.099998 -83.333336
v 83.333336 -104.099998 -104.099998
v 83.333336 -104.099998 104.099998
v 0.000000 -104.099998 104.099998
v 83.333336 -83.333336 104.099998
v -83.333336 -104.099998 104.099998
v 0.000000 -83.333336 104.099998
v -83.333336 0.000000 104.099998
v -104.099998 0.000000 -83.333336
v -83.333336 -83.333336 -104.099998
v 0.000000 -83.333336 -104.099998
v 83.333336 0.000000 -104.099998
v 104.099998 0.000000 83.333336
v 83.333336 83.333336 100.000000
v 0.000000 83.333336 100.000000
v -104.099998 104.099998 -83.333336
v -83.333336 83.333336 -100.000000
v 0.000000 83.333336 -100.000000
v 104.099998 104.099998 83.333336
v 104.099998 83.333336 -83.333336
v 104.099998 104.099998 0.000000
v 100.000000 0.000000 -83.333336
v 100.000000 83.333336 -83.333336
v 100.000000 83.333336 0.000000
v 100.000000 -83.333336 -83.333336
v 100.000000 0.000000 0.000000
v 104.099998 -104.099998 -83.333336
v 104.099998 -83.333336 -83.333336
v 104.099998 -83.333336 0.000000
v 83.333336 -104.099998 -83.333336
v 104.099998 -104.099998 0.000000
v 83.333336 -100.000000 83.333336
v 0.000000 -100.000000 83.333336
v 0.000000 -100.000000 0.000000
v -83.333336 -100.000000 83.333336
v -83.333336 -100.000000 0.000000
v -83.333336 -104.099998 83.333336
v -104.099998 -104.099998 83.333336
v -104.099998 -104.099998 0.000000
v -104.099998 -83.333336 83.333336
v -104.099998 -83.333336 0.000000
v -100.000000 -83.333336 83.333336
v -100.000000 0.000000 83.333336
v -100.000000 0.000000 0.000000
v -100.000000 83.333336 83.333336
v -100.000000 83.333336 0.000000
v -104.099998 83.333336 83.333336
v -104.099998 104.099998 0.000000
v -83.333336 104.099998 -83.333336
v 0.000000 100.000000 -83.333336
v -83.333336 100.000000 -83.333336
v -83.333336 100.000000 0.000000
v 83.333336 100.000000 -83.333336
v 0.000000 100.000000 0.000000
v 83.333336 104.099998 83.333336
v 104.099998 83.333336 0.000000
v 100.000000 83.333336 83.333336
v 100.000000 -83.333336 0.000000
v 100.000000 0.000000 83.333336
v 83.333336 -104.099998 0.000000
v 0.000000 -104.099998 83.333336
v -104.099998 0.000000 83.333336
v -83.333336 104.099998 0.000000
v -83.333336 100.000000 83.333336
v 83.333336 100.000000 0.000000
v 0.000000 100.000000 83.333336
v 104.099998 0.000000 -83.333336
v 83.333336 -100.000000 0.000000
v 0.000000 -100.000000 -83.333336
v -83.333336 -100.000000 -83.333336
v -83.333336 -104.099998 0.000000
v -100.000000 -83.333336 0.000000
v -100.000000 0.000000 -83.333336
v -100.000000 83.333336 -83.333336
v -104.099998 83.333336 0.000000
v 0.000000 104.099998 -83.333336
v 83.333336 104.099998 0.000000
v -83.333336 83.333336 100.000000
v 83.333336 83.333336 -100.000000
v 83.333336 100.000000 83.333336
v 83.333336 -100.000000 -83.333336
v -83.333336 -83.333336 100.000000
v -100.000000 -83.333336 -83.333336
v 83.333336 -83.333336 -100.000000
v 100.000000 -83.333336 83.333336

# UV coordinates
vt 0.316786 0.225125
vt 0.351871 0.225125
vt 0.351871 0.250041
vt 0.668543 0.975003
vt 0.703628 0.975003
vt 0.703628 0.999919
vt 0.316786 0.975003
vt 0.351871 0.975003
vt 0.351872 0.999919
vt 0.668543 0.225125
vt 0.703628 0.225125
vt 0.703628 0.250041
vt 0.035200 0.525241
vt 0.000115 0.525241
vt 0.000115 0.500326
vt 0.316786 0.474921
vt 0.351872 0.474921
vt 0.351872 0.499837
vt 0.316786 0.775038
vt 0.351871 0.775038
vt 0.351871 0.875020
vt 0.668543 0.775038
vt 0.703628 0.775038
vt 0.703628 0.875020
vt 0.316786 0.025160
vt 0.351871 0.025160
vt 0.351871 0.125142
vt 0.668543 0.025160
vt 0.703628 0.025160
vt 0.703628 0.125142
vt 0.391464 0.721612
vt 0.391464 0.613625
vt 0.532257 0.613625
vt 0.035200 0.775038
vt 0.035200 0.750122
vt 0.175993 0.750122
vt 0.316786 0.725206
vt 0.316786 0.750122
vt 0.035200 0.025160
vt 0.035200 0.000244
vt 0.175993 0.000244
vt 0.391464 0.494524
vt 0.391464 0.386538
vt 0.532257 0.386538
vt 0.035200 0.274956
vt 0.035200 0.250041
vt 0.175993 0.250041
vt 0.532257 0.721612
vt 0.673050 0.613625
vt 0.175993 0.775038
vt 0.351872 0.725206
vt 0.351871 0.750122
vt 0.000115 0.025160
vt 0.000115 0.000244
vt 0.000115 0.225125
vt 0.000115 0.125142
vt 0.035200 0.125142
vt 0.000115 0.274956
vt 0.000115 0.250041
vt 0.000115 0.975003
vt 0.000115 0.875020
vt 0.035200 0.875020
vt 0.000115 0.775038
vt 0.000115 0.750122
vt 0.175993 0.725206
vt 0.175993 0.025160
vt 0.316786 0.000244
vt 0.532257 0.494524
vt 0.673050 0.386538
vt 0.175993 0.274956
vt 0.316786 0.250041
vt 0.035200 0.999919
vt 0.000115 0.999919
vt 0.175993 0.999919
vt 0.035200 0.975003
vt 0.316786 0.999919
vt 0.175993 0.975003
vt 0.316786 0.875020
vt 0.668543 0.875020
vt 0.035200 0.225125
vt 0.175993 0.225125
vt 0.316786 0.125142
vt 0.668543 0.125142
vt 0.391464 0.505639
vt 0.532257 0.505639
vt 0.668543 0.750122
vt 0.703628 0.750122
vt 0.391464 0.278551
vt 0.532257 0.278551
vt 0.351872 0.000244
vt 0.668543 0.000244
vt 0.703628 0.000244
vt 0.386957 0.025160
vt 0.386957 0.000244
vt 0.527750 0.000244
vt 0.992829 0.895017
vt 0.992829 0.994999
vt 0.852036 0.994999
vt 0.992829 0.795034
vt 0.852036 0.895017
vt 0.386957 0.250041
vt 0.386957 0.225125
vt 0.527750 0.225125
vt 0.316786 0.274956
vt 0.351872 0.274956
vt 0.351872 0.374939
vt 0.687592 0.722006
vt 0.687592 0.622023
vt 0.828385 0.622023
vt 0.687592 0.522041
vt 0.828385 0.522041
vt 0.035200 0.474921
vt 0.000115 0.474921
vt 0.000115 0.374939
vt 0.386957 0.999919
vt 0.386957 0.975003
vt 0.527750 0.975003
vt 0.687592 0.510926
vt 0.687592 0.394935
vt 0.828385 0.394935
vt 0.687592 0.278945
vt 0.828385 0.278945
vt 0.386957 0.775038
vt 0.386957 0.750122
vt 0.527750 0.750122
vt 0.316786 0.525241
vt 0.351872 0.525241
vt 0.351872 0.625224
vt 0.992829 0.167848
vt 0.992829 0.267830
vt 0.852036 0.267830
vt 0.992829 0.067865
vt 0.852036 0.167848
vt 0.035200 0.725206
vt 0.000115 0.725206
vt 0.000115 0.625224
vt 0.527750 0.025160
vt 0.711243 0.994999
vt 0.852036 0.795034
vt 0.711243 0.895017
vt 0.527750 0.250041
vt 0.316786 0.374939
vt 0.316786 0.499837
vt 0.175993 0.499837
vt 0.175993 0.474921
vt 0.035200 0.499837
vt 0.000115 0.499837
vt 0.386957 0.875020
vt 0.316786 0.625224
vt 0.711243 0.267830
vt 0.852036 0.067865
vt 0.711243 0.167848
vt 0.386957 0.125142
vt 0.828385 0.722006
vt 0.969177 0.622023
vt 0.969177 0.522041
vt 0.035200 0.374939
vt 0.527750 0.999919
vt 0.828385 0.510926
vt 0.969177 0.394935
vt 0.969177 0.278945
vt 0.527750 0.775038
vt 0.316786 0.500326
vt 0.351872 0.500326
vt 0.175993 0.500326
vt 0.035200 0.500326
vt 0.175993 0.525241
vt 0.035200 0.625224
vt 0.673050 0.505639
vt 0.679977 0.505639
vt 0.976104 0.278945
vt 0.673050 0.278551
vt 0.679977 0.278551
vt 0.704316 0.994999
vt 0.391464 0.500326
vt 0.704316 0.267830
vt 0.391464 0.273238
vt 0.976104 0.522041
vt 0.532257 0.500326
vt 0.384537 0.494524
vt 0.384537 0.721612
vt 0.711243 0.067865
vt 0.704316 0.167848
vt 0.532257 0.273238
vt 0.969177 0.722006
vt 0.976104 0.622023
vt 0.532257 0.726925
vt 0.673050 0.721612
vt 0.673050 0.726925
vt 0.679977 0.613625
vt 0.969177 0.510926
vt 0.976104 0.394935
vt 0.532257 0.499837
vt 0.673050 0.494524
vt 0.673050 0.499837
vt 0.679977 0.386538
vt 0.711243 0.795034
vt 0.704316 0.895017
vt 0.384537 0.613625
vt 0.384537 0.386538
vt 0.992829 0.999919
vt 0.852036 0.790115
vt 0.969177 0.726925
vt 0.687592 0.517121
vt 0.828385 0.516633
vt 0.687592 0.273238
vt 0.992829 0.272749
vt 0.711243 0.062946
vt 0.852036 0.999919
vt 0.711243 0.790115
vt 0.828385 0.726925
vt 0.680665 0.722006
vt 0.680665 0.622023
vt 0.680665 0.510926
vt 0.680665 0.394935
vt 0.852036 0.272749
vt 0.999756 0.895017
vt 0.999756 0.795034
vt 0.828385 0.517121
vt 0.969177 0.516633
vt 0.828385 0.273238
vt 0.999756 0.167848
vt 0.999756 0.067865
vt 0.852036 0.062946
vt 0.668543 0.999919
vt 0.668543 0.250041
vt 0.673050 0.500326
vt 0.704316 0.067865
vt 0.673050 0.273238
vt 0.976104 0.722006
vt 0.391464 0.726925
vt 0.679977 0.721612
vt 0.976104 0.510926
vt 0.391464 0.499837
vt 0.679977 0.494524
vt 0.704316 0.795034
vt 0.384537 0.505639
vt 0.384537 0.278551
vt 0.992829 0.790115
vt 0.687592 0.516633
vt 0.711243 0.999919
vt 0.687592 0.726925
vt 0.680665 0.522041
vt 0.680665 0.278945
vt 0.711243 0.272749
vt 0.999756 0.994999
vt 0.969177 0.517121
vt 0.969177 0.273238
vt 0.999756 0.267830
vt 0.992829 0.062946

# vertex normals
vn 0.000000 0.000000 -1.000000
vn -1.000000 0.000000 0.000000
vn 0.000000 0.000000 1.000000
vn 1.000000 0.000000 0.000000
vn 0.000000 1.000000 0.000000
vn 0.000000 -1.000000 0.000000

# Mesh
g Cube
usemtl Mat
f 1/1/1 2/2/1 3/3/1
f 4/4/2 5/5/2 6/6/2
f 7/7/3 8/8/3 9/9/3
f 10/10/4 11/11/4 12/12/4
f 13/13/5 14/14/5 15/15/5
f 16/16/6 17/17/6 12/18/6
f 18/19/3 19/20/3 20/21/3
f 21/22/2 22/23/2 23/24/2
f 24/25/1 25/26/1 26/27/1
f 27/28/4 28/29/4 29/30/4
f 30/31/3 31/32/3 32/33/3
f 33/34/3 34/35/3 35/36/3
f 36/37/5 37/38/5 35/36/5
f 38/39/1 39/40/1 40/41/1
f 41/42/1 42/43/1 43/44/1
f 44/45/6 45/46/6 46/47/6
f 47/48/3 32/33/3 48/49/3
f 49/50/3 35/36/3 37/38/3
f 50/51/5 51/52/5 37/38/5
f 22/53/1 52/54/1 39/40/1
f 5/55/1 23/56/1 53/57/1
f 54/58/6 6/59/6 45/46/6
f 11/60/3 29/61/3 55/62/3
f 28/63/3 56/64/3 34/35/3
f 57/65/5 35/36/5 34/35/5
f 58/66/1 40/41/1 59/67/1
f 60/68/1 43/44/1 61/69/1
f 62/70/6 46/47/6 63/71/6
f 64/72/3 12/73/3 11/60/3
f 65/74/3 64/72/3 66/75/3
f 67/76/3 65/74/3 68/77/3
f 69/78/3 20/21/3 8/8/3
f 70/79/2 23/24/2 5/5/2
f 45/46/1 6/59/1 5/55/1
f 46/47/1 45/46/1 71/80/1
f 63/71/1 46/47/1 72/81/1
f 73/82/1 26/27/1 2/2/1
f 74/83/4 29/30/4 11/11/4
f 55/62/3 29/61/3 28/63/3
f 32/33/3 31/32/3 75/84/3
f 48/49/3 32/33/3 76/85/3
f 37/38/3 51/52/3 19/20/3
f 77/86/2 52/87/2 22/23/2
f 53/57/1 23/56/1 22/53/1
f 43/44/1 42/43/1 78/88/1
f 61/69/1 43/44/1 79/89/1
f 59/67/1 15/90/1 25/26/1
f 80/91/4 56/92/4 28/29/4
f 81/93/4 14/94/4 82/95/4
f 83/96/4 84/97/4 85/98/4
f 86/99/4 83/96/4 87/100/4
f 88/101/4 89/102/4 90/103/4
f 91/104/6 88/105/6 92/106/6
f 93/107/6 94/108/6 95/109/6
f 94/108/6 96/110/6 97/111/6
f 98/112/6 99/113/6 100/114/6
f 99/115/2 101/116/2 102/117/2
f 103/118/2 104/119/2 105/120/2
f 104/119/2 106/121/2 107/122/2
f 108/123/2 50/124/2 109/125/2
f 110/126/5 77/127/5 109/128/5
f 111/129/5 112/130/5 113/131/5
f 114/132/5 111/129/5 115/133/5
f 116/134/5 80/135/5 82/136/5
f 117/137/4 82/95/4 80/91/4
f 87/100/4 85/98/4 118/138/4
f 119/139/4 87/100/4 120/140/4
f 92/141/4 90/103/4 10/10/4
f 121/142/6 92/106/6 17/17/6
f 64/143/6 65/144/6 122/145/6
f 65/144/6 67/146/6 98/112/6
f 67/146/6 9/147/6 99/113/6
f 9/9/2 8/8/2 101/116/2
f 8/8/2 20/21/2 123/148/2
f 20/21/2 19/20/2 108/123/2
f 19/20/2 51/52/2 50/124/2
f 124/149/5 109/128/5 50/51/5
f 115/133/5 113/131/5 125/150/5
f 126/151/5 115/133/5 127/152/5
f 34/35/5 56/64/5 80/135/5
f 25/26/4 15/90/4 14/94/4
f 26/27/4 25/26/4 81/93/4
f 2/2/4 26/27/4 128/153/4
f 3/3/4 2/2/4 89/102/4
f 63/71/6 3/3/6 88/105/6
f 129/154/6 95/109/6 130/155/6
f 95/109/6 97/111/6 131/156/6
f 132/157/6 100/114/6 54/58/6
f 100/158/2 102/117/2 4/4/2
f 133/159/2 105/120/2 134/160/2
f 105/120/2 107/122/2 135/161/2
f 136/162/2 109/125/2 77/86/2
f 39/163/5 52/164/5 77/127/5
f 40/165/5 39/163/5 110/126/5
f 59/166/5 40/165/5 137/167/5
f 138/168/5 82/136/5 14/14/5
f 48/49/4 139/169/4 18/170/4
f 134/160/3 135/161/3 21/171/3
f 61/69/2 140/172/2 24/173/2
f 120/140/1 118/138/1 27/174/1
f 76/85/6 75/84/6 33/175/6
f 127/152/1 125/150/1 36/176/1
f 79/89/6 78/88/6 38/177/6
f 130/155/3 131/156/3 44/178/3
f 139/169/6 76/85/6 49/179/6
f 42/43/4 41/42/4 71/180/4
f 31/32/2 30/31/2 66/181/2
f 141/182/1 127/152/1 57/183/1
f 140/172/6 79/89/6 58/184/6
f 142/185/3 130/155/3 62/186/3
f 30/31/5 47/48/5 68/187/5
f 47/48/5 143/188/5 7/189/5
f 143/188/4 48/49/4 69/190/4
f 144/191/3 134/160/3 70/192/3
f 41/42/5 60/68/5 72/193/5
f 60/68/5 145/194/5 1/195/5
f 145/194/2 61/69/2 73/196/2
f 146/197/1 120/140/1 74/198/1
f 75/84/2 31/32/2 55/199/2
f 78/88/4 42/43/4 53/200/4
f 85/98/6 84/97/6 81/201/6
f 86/99/5 119/139/5 90/202/5
f 129/154/2 142/185/2 91/203/2
f 97/111/4 96/110/4 98/204/4
f 103/118/5 133/159/5 102/205/5
f 107/122/6 106/121/6 108/206/6
f 113/131/4 112/130/4 110/207/4
f 126/151/2 141/182/2 116/208/2
f 118/138/6 85/98/6 117/209/6
f 119/139/5 146/197/5 10/210/5
f 93/107/2 129/154/2 121/211/2
f 94/108/1 93/107/1 16/212/1
f 96/110/1 94/108/1 122/213/1
f 104/119/1 103/118/1 101/214/1
f 106/121/1 104/119/1 123/215/1
f 125/150/4 113/131/4 124/216/4
f 84/97/3 83/96/3 128/217/3
f 83/96/3 86/99/3 89/218/3
f 131/156/4 97/111/4 132/219/4
f 133/159/5 144/191/5 4/220/5
f 135/161/6 107/122/6 136/221/6
f 112/130/3 111/129/3 137/222/3
f 111/129/3 114/132/3 13/223/3
f 114/132/2 126/151/2 138/224/2
f 63/71/1 1/1/1 3/3/1
f 54/225/2 4/4/2 6/6/2
f 67/76/3 7/7/3 9/9/3
f 17/226/4 10/10/4 12/12/4
f 59/166/5 13/13/5 15/15/5
f 64/143/6 16/16/6 12/18/6
f 69/78/3 18/19/3 20/21/3
f 70/79/2 21/22/2 23/24/2
f 73/82/1 24/25/1 26/27/1
f 74/83/4 27/28/4 29/30/4
f 47/48/3 30/31/3 32/33/3
f 49/50/3 33/34/3 35/36/3
f 57/65/5 36/37/5 35/36/5
f 58/66/1 38/39/1 40/41/1
f 60/68/1 41/42/1 43/44/1
f 62/70/6 44/45/6 46/47/6
f 143/188/3 47/48/3 48/49/3
f 18/19/3 49/50/3 37/38/3
f 36/37/5 50/51/5 37/38/5
f 38/39/1 22/53/1 39/40/1
f 71/80/1 5/55/1 53/57/1
f 44/45/6 54/58/6 45/46/6
f 66/75/3 11/60/3 55/62/3
f 33/34/3 28/63/3 34/35/3
f 116/134/5 57/65/5 34/35/5
f 24/25/1 58/66/1 59/67/1
f 145/194/1 60/68/1 61/69/1
f 91/104/6 62/70/6 63/71/6
f 66/75/3 64/72/3 11/60/3
f 68/77/3 65/74/3 66/75/3
f 7/7/3 67/76/3 68/77/3
f 7/7/3 69/78/3 8/8/3
f 4/4/2 70/79/2 5/5/2
f 71/80/1 45/46/1 5/55/1
f 72/81/1 46/47/1 71/80/1
f 1/1/1 63/71/1 72/81/1
f 1/1/1 73/82/1 2/2/1
f 10/10/4 74/83/4 11/11/4
f 33/34/3 55/62/3 28/63/3
f 76/85/3 32/33/3 75/84/3
f 139/169/3 48/49/3 76/85/3
f 18/19/3 37/38/3 19/20/3
f 21/22/2 77/86/2 22/23/2
f 38/39/1 53/57/1 22/53/1
f 79/89/1 43/44/1 78/88/1
f 140/172/1 61/69/1 79/89/1
f 24/25/1 59/67/1 25/26/1
f 27/28/4 80/91/4 28/29/4
f 117/137/4 81/93/4 82/95/4
f 87/100/4 83/96/4 85/98/4
f 119/139/4 86/99/4 87/100/4
f 92/141/4 88/101/4 90/103/4
f 121/142/6 91/104/6 92/106/6
f 129/154/6 93/107/6 95/109/6
f 95/109/6 94/108/6 97/111/6
f 132/157/6 98/112/6 100/114/6
f 100/158/2 99/115/2 102/117/2
f 133/159/2 103/118/2 105/120/2
f 105/120/2 104/119/2 107/122/2
f 136/162/2 108/123/2 109/125/2
f 124/149/5 110/126/5 109/128/5
f 115/133/5 111/129/5 113/131/5
f 126/151/5 114/132/5 115/133/5
f 138/168/5 116/134/5 82/136/5
f 27/28/4 117/137/4 80/91/4
f 120/140/4 87/100/4 118/138/4
f 146/197/4 119/139/4 120/140/4
f 17/226/4 92/141/4 10/10/4
f 16/16/6 121/142/6 17/17/6
f 16/16/6 64/143/6 122/145/6
f 122/145/6 65/144/6 98/112/6
f 98/112/6 67/146/6 99/113/6
f 99/115/2 9/9/2 101/116/2
f 101/116/2 8/8/2 123/148/2
f 123/148/2 20/21/2 108/123/2
f 108/123/2 19/20/2 50/124/2
f 36/37/5 124/149/5 50/51/5
f 127/152/5 115/133/5 125/150/5
f 141/182/5 126/151/5 127/152/5
f 116/134/5 34/35/5 80/135/5
f 81/93/4 25/26/4 14/94/4
f 128/153/4 26/27/4 81/93/4
f 89/102/4 2/2/4 128/153/4
f 88/101/4 3/3/4 89/102/4
f 91/104/6 63/71/6 88/105/6
f 142/185/6 129/154/6 130/155/6
f 130/155/6 95/109/6 131/156/6
f 44/45/6 132/157/6 54/58/6
f 54/225/2 100/158/2 4/4/2
f 144/191/2 133/159/2 134/160/2
f 134/160/2 105/120/2 135/161/2
f 21/22/2 136/162/2 77/86/2
f 110/126/5 39/163/5 77/127/5
f 137/167/5 40/165/5 110/126/5
f 13/13/5 59/166/5 137/167/5
f 13/13/5 138/168/5 14/14/5
f 69/190/4 48/49/4 18/170/4
f 70/192/3 134/160/3 21/171/3
f 73/196/2 61/69/2 24/173/2
f 74/198/1 120/140/1 27/174/1
f 49/179/6 76/85/6 33/175/6
f 57/183/1 127/152/1 36/176/1
f 58/184/6 79/89/6 38/177/6
f 62/186/3 130/155/3 44/178/3
f 18/227/6 139/169/6 49/179/6
f 53/200/4 42/43/4 71/180/4
f 55/199/2 31/32/2 66/181/2
f 116/228/1 141/182/1 57/183/1
f 24/229/6 140/172/6 58/184/6
f 91/230/3 142/185/3 62/186/3
f 66/231/5 30/31/5 68/187/5
f 68/187/5 47/48/5 7/189/5
f 7/232/4 143/188/4 69/190/4
f 4/233/3 144/191/3 70/192/3
f 71/234/5 41/42/5 72/193/5
f 72/193/5 60/68/5 1/195/5
f 1/235/2 145/194/2 73/196/2
f 10/236/1 146/197/1 74/198/1
f 33/237/2 75/84/2 55/199/2
f 38/238/4 78/88/4 53/200/4
f 117/209/6 85/98/6 81/201/6
f 89/239/5 86/99/5 90/202/5
f 121/211/2 129/154/2 91/203/2
f 132/219/4 97/111/4 98/204/4
f 101/240/5 103/118/5 102/205/5
f 136/221/6 107/122/6 108/206/6
f 124/216/4 113/131/4 110/207/4
f 138/224/2 126/151/2 116/208/2
f 27/241/6 118/138/6 117/209/6
f 90/202/5 119/139/5 10/210/5
f 16/242/2 93/107/2 121/211/2
f 122/213/1 94/108/1 16/212/1
f 98/243/1 96/110/1 122/213/1
f 123/215/1 104/119/1 101/214/1
f 108/244/1 106/121/1 123/215/1
f 36/245/4 125/150/4 124/216/4
f 81/246/3 84/97/3 128/217/3
f 128/217/3 83/96/3 89/218/3
f 44/247/4 131/156/4 132/219/4
f 102/205/5 133/159/5 4/220/5
f 21/248/6 135/161/6 136/221/6
f 110/249/3 112/130/3 137/222/3
f 137/222/3 111/129/3 13/223/3
f 13/250/2 114/132/2 138/224/2
